<?xml version="1.0" standalone="no"?>
<!DOCTYPE svg PUBLIC "-//W3C//DTD SVG 20010904//EN"
 "http://www.w3.org/TR/2001/REC-SVG-20010904/DTD/svg10.dtd">
<svg version="1.0" xmlns="http://www.w3.org/2000/svg"
 width="1039.000000pt" height="240.000000pt" viewBox="0 0 1039.000000 240.000000"
 preserveAspectRatio="xMidYMid meet">

<g transform="translate(0.000000,240.000000) scale(0.100000,-0.100000)"
fill="#000000" stroke="none">
<path d="M5256 1846 l-178 -51 5 -125 c5 -135 15 -179 50 -230 41 -61 70 -75
159 -77 62 -1 84 -5 90 -17 14 -25 39 -20 33 7 -5 19 2 26 46 47 29 14 66 42
83 63 29 36 31 44 31 120 0 76 -3 88 -42 167 -23 47 -54 99 -70 116 l-28 31
-179 -51z m214 -26 c18 -28 43 -76 56 -108 70 -173 22 -272 -154 -317 -81 -21
-132 -13 -178 28 -64 55 -94 149 -94 288 l0 68 43 11 c23 6 94 26 157 44 63
19 120 34 126 35 7 0 26 -22 44 -49z"/>
<path d="M5414 1736 c-3 -9 4 -32 15 -52 30 -51 31 -102 2 -126 -29 -23 -44
-23 -116 2 -42 14 -62 17 -71 9 -12 -9 -44 -91 -44 -111 0 -5 21 -18 46 -30
55 -24 103 -20 181 17 96 44 121 137 66 246 -29 56 -67 78 -79 45z"/>
<path d="M3012 1623 c-75 -37 -102 -98 -102 -237 l0 -89 120 -167 120 -168 0
-71 c0 -76 -18 -111 -59 -111 -40 0 -51 26 -51 116 l0 84 -65 0 -65 0 0 -77
c0 -43 5 -95 10 -115 33 -117 184 -166 278 -91 60 48 72 82 72 208 l0 110
-115 158 -115 158 0 79 c0 73 2 81 25 96 30 20 63 10 76 -23 5 -13 9 -56 9
-94 l0 -69 60 0 60 0 0 89 c0 100 -9 133 -48 175 -52 55 -143 72 -210 39z"/>
<path d="M4155 1626 c-37 -17 -80 -62 -94 -99 -6 -16 -11 -75 -11 -132 l0
-105 109 -149 c60 -82 114 -159 121 -171 7 -14 11 -48 8 -87 -5 -76 -29 -110
-72 -99 -35 9 -46 40 -46 127 l0 69 -60 0 -60 0 0 -95 c0 -102 9 -133 52 -171
60 -55 132 -68 203 -35 80 36 104 90 105 233 l0 97 -120 167 c-120 166 -120
167 -120 223 0 76 7 97 37 110 56 26 83 -15 83 -125 l0 -64 60 0 60 0 0 78 c0
94 -12 141 -47 183 -47 56 -139 76 -208 45z"/>
<path d="M6576 1626 c-45 -17 -90 -57 -106 -95 -7 -19 -10 -141 -8 -391 3
-364 3 -365 26 -398 51 -70 159 -93 236 -49 67 38 95 95 96 195 l0 42 -65 0
-65 0 0 -53 c0 -40 -5 -58 -18 -70 -24 -22 -55 -21 -75 1 -15 17 -17 55 -17
345 0 352 1 357 54 357 33 0 56 -31 56 -74 l0 -37 63 3 c59 3 62 4 65 30 8 65
-39 152 -97 182 -43 22 -102 27 -145 12z"/>
<path d="M7156 1613 c-11 -53 -136 -910 -136 -931 0 -20 5 -22 59 -22 l58 0
23 170 23 170 73 0 c44 0 74 -4 74 -10 0 -14 39 -278 46 -307 4 -21 10 -23 64
-23 33 0 60 4 60 8 0 4 -27 165 -61 358 -33 192 -70 408 -83 479 l-22 130 -86
3 -86 3 -6 -28z m124 -288 c11 -82 23 -160 26 -172 4 -22 1 -23 -51 -23 l-56
0 6 33 c3 17 12 82 20 142 20 144 26 178 30 174 2 -2 13 -71 25 -154z"/>
<path d="M8260 1155 l0 -485 65 0 65 0 0 485 0 485 -65 0 -65 0 0 -485z"/>
<path d="M8580 1150 l0 -490 65 0 65 0 0 367 c0 201 2 364 4 362 2 -2 28 -167
57 -366 l53 -363 98 0 c54 0 98 1 98 3 1 1 4 221 7 490 l6 487 -61 0 -62 0 -1
-32 c-1 -18 -5 -186 -8 -373 l-6 -340 -48 345 c-27 190 -51 357 -54 373 l-5
27 -104 0 -104 0 0 -490z"/>
<path d="M9230 1150 l0 -490 155 0 155 0 0 65 0 65 -95 0 -95 0 0 195 0 195
95 0 95 0 0 65 0 65 -95 0 -95 0 0 100 0 100 95 0 95 0 0 65 0 65 -155 0 -155
0 0 -490z"/>
<path d="M9740 1580 l0 -60 90 0 90 0 0 -430 0 -430 65 0 65 0 0 430 0 430 80
0 80 0 0 60 0 60 -235 0 -235 0 0 -60z"/>
<path d="M1708 1622 l-98 -3 0 -479 0 -480 65 0 65 0 1 368 c0 202 2 363 5
357 4 -10 104 -697 104 -715 0 -6 39 -10 100 -10 l100 0 0 413 c0 226 3 442 7
480 l6 67 -67 0 -66 0 0 -342 c0 -189 -4 -348 -8 -355 -4 -6 -29 147 -55 340
-27 194 -52 354 -55 357 -4 3 -51 4 -104 2z"/>
<path d="M7702 1148 l3 -483 120 0 c132 0 167 11 209 68 19 26 21 43 24 228 3
173 1 204 -14 232 -14 26 -17 56 -15 164 3 145 -10 193 -63 243 -26 23 -36 25
-147 28 l-119 4 2 -484z m198 343 c11 -21 14 -159 4 -185 -4 -10 -18 -16 -40
-16 l-34 0 0 110 0 110 30 0 c19 0 33 -7 40 -19z m28 -343 c8 -8 12 -61 12
-173 0 -112 -4 -165 -12 -173 -7 -7 -31 -12 -55 -12 l-43 0 0 185 0 185 43 0
c24 0 48 -5 55 -12z"/>
<path d="M190 1145 l0 -475 113 0 c131 0 171 16 222 88 l30 44 3 313 c4 361 1
380 -63 441 -51 50 -101 64 -219 64 l-86 0 0 -475z m218 325 c22 -21 22 -25
22 -330 0 -305 0 -309 -22 -330 -14 -13 -35 -20 -60 -20 l-38 0 0 350 0 350
38 0 c25 0 46 -7 60 -20z"/>
<path d="M750 1145 l0 -475 60 0 60 0 0 475 0 475 -60 0 -60 0 0 -475z"/>
<path d="M1165 1606 c-45 -20 -82 -69 -94 -126 -15 -68 -15 -602 0 -670 21
-97 90 -147 194 -138 65 5 111 37 136 92 17 37 19 71 19 382 0 338 0 341 -23
385 -42 78 -147 112 -232 75z m117 -123 c17 -15 18 -39 18 -336 0 -284 -2
-322 -17 -339 -20 -22 -51 -23 -75 -1 -17 15 -18 39 -18 336 0 284 2 322 17
339 20 22 51 23 75 1z"/>
<path d="M2255 1603 c4 -10 40 -137 81 -283 l74 -265 0 -192 0 -193 65 0 64 0
3 203 4 202 82 260 c45 143 84 266 87 273 4 10 -11 12 -63 10 l-67 -3 -51
-163 c-28 -89 -53 -164 -56 -167 -3 -3 -27 71 -53 165 l-48 170 -65 0 c-57 0
-63 -2 -57 -17z"/>
<path d="M3469 1616 c-2 -2 -2 -191 1 -419 l5 -415 31 -38 c82 -102 227 -103
308 -1 l31 39 3 419 3 420 -58 -3 -58 -3 -3 -397 -2 -397 -27 -21 c-32 -25
-69 -20 -95 12 -17 18 -18 54 -18 414 l0 394 -58 0 c-32 0 -61 -2 -63 -4z"/>
<path d="M5672 1459 c3 -9 27 -17 63 -21 33 -4 65 -14 73 -22 13 -12 9 -17
-25 -34 -154 -79 -561 -124 -730 -80 -44 11 -55 24 -28 34 15 6 21 34 8 34
-19 -1 -43 -29 -43 -49 0 -43 55 -56 245 -57 l170 0 17 -59 c21 -66 17 -75
-43 -106 -58 -29 -69 -26 -69 21 0 36 3 41 41 60 27 14 39 27 37 38 -5 21 -69
22 -113 1 -28 -13 -30 -19 -38 -94 l-9 -80 33 -27 33 -28 -26 0 c-69 0 -83 9
-116 76 -31 63 -56 81 -68 49 -8 -19 26 -154 43 -170 6 -7 39 -18 72 -25 66
-14 93 -32 39 -25 -18 3 -54 7 -80 10 -51 7 -60 14 -77 65 -8 25 -26 45 -61
68 -55 35 -75 40 -84 17 -6 -18 15 -42 109 -122 l70 -60 135 -17 c212 -27 339
-67 372 -118 24 -36 45 -116 52 -194 13 -137 12 -133 54 -127 57 8 142 33 183
54 l37 18 -74 228 c-41 125 -83 246 -94 268 -35 71 -157 191 -244 240 -46 26
-73 46 -65 49 8 3 55 12 104 21 172 30 269 74 263 119 -4 27 -40 44 -113 52
-47 6 -57 5 -53 -7z m-177 -299 c3 -5 -1 -10 -9 -10 -9 0 -16 5 -16 10 0 6 4
10 9 10 6 0 13 -4 16 -10z m55 -59 c28 -54 0 -91 -68 -91 -45 0 -123 28 -136
48 -3 5 35 21 87 35 113 31 104 31 117 8z"/>
<path d="M5045 831 c-48 -13 -60 -20 -60 -36 0 -18 6 -20 65 -17 36 1 96 12
134 24 67 22 68 23 35 29 -83 16 -117 16 -174 0z"/>
</g>
</svg>
