<?xml version="1.0" standalone="no"?>
<!DOCTYPE svg PUBLIC "-//W3C//DTD SVG 20010904//EN"
 "http://www.w3.org/TR/2001/REC-SVG-20010904/DTD/svg10.dtd">
<svg version="1.0" xmlns="http://www.w3.org/2000/svg"
 width="1299.000000pt" height="300.000000pt" viewBox="0 0 1299.000000 300.000000"
 preserveAspectRatio="xMidYMid meet">

<g transform="translate(0.000000,300.000000) scale(0.100000,-0.100000)"
fill="#000000" stroke="none">
<path d="M6563 2306 l-213 -61 0 -55 c0 -123 20 -293 39 -336 28 -63 67 -110
106 -128 18 -9 74 -19 124 -23 67 -4 97 -11 113 -24 24 -22 38 -17 38 15 0 18
16 32 67 63 37 22 81 57 98 78 29 36 30 40 30 145 l0 107 -52 104 c-53 106
-105 180 -126 178 -7 -1 -108 -29 -224 -63z m322 -121 c84 -172 83 -272 -5
-357 -39 -38 -64 -52 -130 -72 -93 -30 -145 -32 -198 -10 -113 47 -172 177
-172 379 l0 100 203 57 202 57 28 -32 c16 -18 48 -72 72 -122z"/>
<path d="M6773 2174 c-3 -10 -1 -31 6 -48 39 -94 42 -108 31 -142 -20 -60 -59
-67 -173 -33 -68 21 -71 21 -84 4 -21 -29 -54 -125 -47 -137 13 -20 90 -48
136 -48 92 0 208 62 244 131 32 63 5 201 -53 261 -30 32 -51 36 -60 12z"/>
<path d="M3796 2040 c-53 -16 -96 -54 -123 -110 -24 -48 -28 -68 -31 -181 l-4
-126 152 -212 152 -212 -4 -84 c-5 -102 -23 -135 -72 -135 -51 0 -60 19 -64
136 l-4 104 -81 0 -80 0 5 -120 c5 -111 7 -124 34 -167 89 -143 313 -135 385
14 20 41 24 67 27 183 l4 135 -146 200 -146 200 0 82 c0 100 9 127 49 141 27
10 35 8 57 -12 25 -21 27 -30 32 -124 l5 -102 73 0 74 0 0 90 c0 139 -14 187
-69 240 -64 63 -144 84 -225 60z"/>
<path d="M5205 2037 c-46 -21 -94 -66 -116 -108 -15 -30 -21 -68 -26 -172 l-6
-134 147 -202 c80 -112 149 -214 152 -228 11 -41 -2 -160 -20 -188 -11 -17
-25 -25 -44 -25 -55 0 -71 32 -79 151 l-6 89 -75 0 -75 0 6 -119 c7 -131 15
-157 69 -208 69 -67 164 -81 254 -39 98 45 123 107 124 297 l0 115 -133 186
c-74 103 -140 201 -148 220 -15 35 -18 124 -6 171 9 31 57 58 90 49 30 -8 47
-62 47 -157 l0 -85 76 0 76 0 -4 118 c-4 146 -26 199 -102 247 -56 34 -150 45
-201 22z"/>
<path d="M8950 2044 c0 -5 -9 -63 -20 -129 -33 -207 -150 -1025 -150 -1055 0
-27 2 -28 66 -35 36 -4 68 -4 71 -1 5 4 60 376 63 419 0 13 167 8 177 -5 5 -7
17 -71 27 -143 10 -71 23 -159 29 -195 l12 -65 73 -3 c70 -3 72 -2 72 20 0 34
-198 1180 -205 1187 -10 9 -215 14 -215 5z m155 -416 c15 -103 25 -194 22
-203 -5 -11 -22 -15 -67 -15 l-61 0 6 33 c11 65 55 372 55 387 1 13 2 13 9 0
5 -8 21 -99 36 -202z"/>
<path d="M10330 1445 l0 -605 80 0 80 0 0 605 0 605 -80 0 -80 0 0 -605z"/>
<path d="M10730 1435 l0 -616 78 3 77 3 5 450 5 450 18 -110 c10 -60 40 -261
68 -445 27 -184 53 -338 58 -343 5 -5 60 -5 125 -1 l116 7 0 151 c0 83 3 357
7 609 l6 457 -75 0 -75 0 -6 -97 c-4 -54 -7 -172 -7 -263 0 -91 -3 -250 -7
-355 l-6 -189 -63 439 c-35 242 -63 446 -64 453 0 9 -33 12 -130 12 l-130 0 0
-615z"/>
<path d="M11540 1435 l0 -615 193 2 192 3 0 80 0 80 -117 3 -118 3 0 239 0
239 118 3 117 3 0 80 0 80 -117 3 -118 3 0 124 0 125 120 0 120 0 0 80 0 80
-195 0 -195 0 0 -615z"/>
<path d="M12180 1975 l0 -75 110 0 110 0 2 -537 3 -538 78 -3 77 -3 0 541 0
540 100 0 100 0 0 75 0 75 -290 0 -290 0 0 -75z"/>
<path d="M8200 2023 c-51 -26 -106 -85 -113 -123 -9 -45 -7 -832 2 -898 10
-68 34 -100 102 -135 46 -24 63 -28 115 -25 129 8 206 93 220 246 l7 72 -87 0
-86 0 0 -65 c0 -52 -4 -69 -20 -85 -23 -23 -58 -26 -86 -6 -18 14 -19 30 -19
436 0 406 1 422 19 436 29 20 54 17 81 -11 19 -18 25 -35 25 -70 l0 -45 49 0
c27 0 63 3 81 6 l32 7 -4 62 c-4 73 -45 145 -104 185 -49 33 -161 40 -214 13z"/>
<path d="M9630 1434 l0 -606 153 4 c130 4 158 7 193 26 44 22 71 56 85 105 15
53 13 491 -2 519 -9 15 -16 85 -20 208 -6 205 -17 248 -77 304 -28 26 -41 30
-119 37 -48 4 -116 8 -150 8 l-63 1 0 -606z m234 441 c8 -8 18 -40 21 -70 8
-59 3 -170 -7 -181 -4 -3 -25 -8 -47 -11 l-41 -6 0 142 0 141 29 0 c16 0 36
-7 45 -15z m42 -439 c18 -13 19 -28 19 -214 0 -233 0 -232 -81 -232 l-54 0 0
230 0 230 48 0 c27 0 57 -6 68 -14z"/>
<path d="M940 1435 l0 -595 75 0 75 0 -2 593 -3 592 -72 3 -73 3 0 -596z"/>
<path d="M1487 2016 c-57 -16 -99 -53 -130 -115 -21 -45 -22 -56 -25 -424 -4
-421 2 -489 45 -552 72 -103 255 -116 340 -24 51 56 54 79 60 433 3 182 1 382
-5 444 -8 101 -12 118 -38 154 -52 74 -155 109 -247 84z m119 -167 c18 -20 19
-42 19 -413 0 -296 -3 -396 -13 -413 -15 -27 -58 -40 -81 -26 -38 24 -41 47
-41 423 0 356 5 424 32 442 24 14 65 8 84 -13z"/>
<path d="M2032 2023 l-22 -4 2 -597 3 -597 80 0 80 0 5 445 5 445 16 -100 c9
-55 38 -251 64 -435 27 -184 51 -338 54 -342 3 -3 58 -9 122 -13 l116 -7 7
563 c3 310 9 581 13 602 l6 37 -87 0 -86 0 -1 -432 c0 -276 -4 -425 -10 -410
-5 13 -34 195 -64 405 -31 210 -60 396 -64 412 l-7 30 -105 1 c-57 1 -114 0
-127 -3z"/>
<path d="M4733 2023 l-63 -4 0 -303 c0 -166 -3 -392 -7 -501 l-6 -197 -31 -19
c-41 -25 -69 -24 -103 5 l-28 24 -3 496 -3 496 -74 0 -75 0 0 -519 0 -519 50
-55 c59 -64 113 -90 190 -89 73 0 122 23 181 84 l49 51 0 529 c0 290 -3 527
-7 526 -5 -1 -36 -3 -70 -5z"/>
<path d="M240 1430 l0 -590 123 0 c158 0 210 14 265 74 77 84 74 60 70 509 -4
457 -4 455 -85 526 -64 57 -115 71 -255 71 l-118 0 0 -590z m267 406 l28 -24
0 -387 0 -387 -28 -24 c-21 -18 -40 -24 -73 -24 l-44 0 0 435 0 435 44 0 c33
0 52 -6 73 -24z"/>
<path d="M2820 2013 c0 -3 43 -157 95 -342 l95 -337 0 -247 0 -247 85 0 85 0
0 246 0 246 105 332 c58 182 105 337 105 344 0 8 -23 12 -78 12 l-78 0 -63
-197 c-35 -109 -66 -202 -70 -206 -8 -8 -49 119 -98 301 l-28 102 -77 0 c-43
0 -78 -3 -78 -7z"/>
<path d="M7095 1831 c-8 -13 6 -20 67 -31 63 -12 108 -29 108 -41 0 -13 -88
-55 -166 -78 -160 -47 -305 -65 -534 -66 -148 0 -228 4 -257 13 -43 13 -56 35
-28 46 19 7 20 36 1 36 -18 0 -46 -38 -46 -61 0 -50 91 -69 346 -69 l170 0 17
-53 c31 -98 21 -123 -61 -159 -57 -25 -72 -19 -72 31 0 41 1 42 75 94 21 15
24 22 14 33 -27 33 -152 5 -168 -38 -4 -13 -12 -59 -16 -103 l-7 -79 38 -33
39 -33 -42 0 c-62 0 -85 15 -123 78 -41 70 -59 92 -77 92 -36 0 7 -207 50
-234 12 -8 47 -19 77 -26 88 -20 94 -32 14 -25 -118 10 -126 14 -156 77 -19
40 -40 65 -72 87 -57 40 -89 52 -107 40 -24 -15 7 -56 115 -150 l99 -87 96
-12 c227 -28 392 -65 472 -106 82 -41 110 -107 134 -313 8 -69 20 -130 25
-135 20 -20 242 39 296 78 18 14 16 22 -70 283 -49 147 -101 296 -116 330 -39
86 -175 226 -298 306 -51 33 -89 63 -85 67 4 4 49 15 98 24 266 50 394 116
341 175 -26 28 -178 62 -191 42z m-225 -381 c0 -5 -7 -10 -15 -10 -8 0 -15 5
-15 10 0 6 7 10 15 10 8 0 15 -4 15 -10z m64 -72 c35 -49 12 -99 -50 -112 -50
-11 -194 30 -194 55 0 12 33 25 135 54 100 29 91 29 109 3z"/>
<path d="M6289 1035 c-46 -15 -66 -36 -53 -57 9 -15 144 -2 227 21 113 31 106
43 -30 47 -68 3 -112 -1 -144 -11z"/>
<path d="M4608 394 c-5 -4 -8 -54 -8 -111 l0 -103 25 0 c23 0 25 4 25 40 l0
40 40 0 c69 0 103 59 62 110 -13 16 -32 23 -77 27 -33 3 -63 2 -67 -3z m96
-40 c25 -10 20 -51 -6 -58 -42 -11 -48 -7 -48 29 0 36 15 44 54 29z"/>
<path d="M4829 371 c-25 -26 -29 -37 -29 -86 0 -46 4 -60 25 -80 39 -40 108
-37 149 7 26 28 28 36 24 86 -4 45 -10 60 -32 79 -40 34 -99 32 -137 -6z m111
-26 c7 -8 13 -34 14 -56 0 -32 -5 -45 -23 -60 -30 -24 -46 -24 -71 1 -24 24
-26 77 -4 108 18 26 65 30 84 7z"/>
<path d="M5020 398 c0 -2 14 -50 30 -108 17 -58 30 -106 30 -107 0 -2 9 -3 20
-3 23 0 23 0 43 90 l13 65 13 -60 c19 -94 21 -96 44 -93 17 2 26 20 49 98 33
114 34 120 8 120 -20 0 -27 -17 -48 -115 l-9 -40 -17 78 c-15 62 -22 77 -36
77 -25 0 -29 -9 -44 -87 l-12 -67 -20 74 c-16 63 -23 76 -41 78 -13 2 -23 2
-23 0z"/>
<path d="M5320 290 l0 -110 80 0 c73 0 80 2 80 20 0 18 -7 20 -60 20 -57 0
-60 1 -60 24 0 23 4 25 52 28 41 2 54 7 56 21 3 14 -5 17 -52 17 -53 0 -56 1
-56 25 0 24 3 25 61 25 52 0 60 2 57 18 -3 14 -16 17 -81 20 l-77 3 0 -111z"/>
<path d="M5520 290 c0 -103 1 -110 20 -110 17 0 20 7 20 40 0 40 0 40 39 40
37 0 39 -1 45 -40 5 -33 10 -40 30 -40 21 0 22 3 16 45 -4 25 -9 48 -12 51 -4
3 0 17 7 31 29 55 -14 93 -107 93 l-58 0 0 -110z m118 61 c8 -5 12 -17 10 -27
-2 -14 -13 -20 -46 -22 -41 -3 -42 -2 -42 27 0 28 3 31 33 31 17 0 38 -4 45
-9z"/>
<path d="M5740 290 l0 -110 80 0 c73 0 80 2 80 20 0 18 -7 20 -60 20 -57 0
-60 1 -60 24 0 23 4 25 52 28 41 2 54 7 56 21 3 14 -5 17 -52 17 -53 0 -56 1
-56 25 0 24 3 25 61 25 52 0 60 2 57 18 -3 14 -16 17 -81 20 l-77 3 0 -111z"/>
<path d="M5940 290 l0 -110 59 0 c81 0 112 25 118 96 8 89 -32 124 -138 124
l-39 0 0 -110z m111 60 c14 -8 19 -21 19 -51 0 -59 -14 -79 -55 -79 l-35 0 0
70 c0 68 1 70 26 70 14 0 34 -5 45 -10z"/>
<path d="M6240 290 l0 -110 65 0 c57 0 69 3 90 25 29 28 31 43 11 70 -10 14
-11 25 -4 38 27 51 -20 87 -113 87 l-49 0 0 -110z m118 58 c18 -18 -5 -38 -44
-38 -30 0 -34 3 -34 25 0 22 4 25 33 25 18 0 38 -5 45 -12z m6 -88 c19 -19 -3
-40 -44 -40 -35 0 -40 3 -40 23 0 13 3 27 7 31 9 9 64 -1 77 -14z"/>
<path d="M6440 393 c0 -3 16 -34 35 -69 24 -43 35 -75 35 -103 0 -34 3 -41 20
-41 16 0 20 7 20 37 0 23 13 60 35 100 40 74 42 83 15 83 -13 0 -27 -15 -44
-47 l-24 -48 -23 48 c-18 36 -28 47 -46 47 -13 0 -23 -3 -23 -7z"/>
<path d="M6737 394 c-4 -4 -7 -54 -7 -111 0 -96 1 -103 20 -103 17 0 19 8 22
83 l3 82 19 -82 c17 -74 22 -83 42 -83 20 0 25 9 42 83 l20 82 1 -82 c1 -76 3
-83 21 -83 19 0 20 7 20 111 l0 110 -32 -3 c-29 -3 -33 -7 -41 -43 -5 -22 -14
-58 -19 -80 l-11 -40 -21 80 c-19 72 -24 80 -46 83 -14 2 -29 0 -33 -4z"/>
<path d="M6970 393 c0 -3 16 -34 35 -69 24 -43 35 -75 35 -103 0 -34 3 -41 20
-41 16 0 20 7 20 37 0 23 13 60 35 100 40 74 42 83 15 83 -13 0 -27 -15 -44
-47 l-24 -48 -23 48 c-18 36 -28 47 -46 47 -13 0 -23 -3 -23 -7z"/>
<path d="M7202 384 c-15 -10 -22 -25 -22 -48 0 -41 11 -51 73 -67 40 -10 48
-15 45 -33 -4 -30 -51 -34 -75 -7 -9 12 -23 21 -30 21 -23 0 -23 -19 -1 -45
41 -47 141 -33 154 22 11 44 -10 65 -84 83 -32 8 -42 15 -40 28 4 23 66 29 74
8 7 -19 44 -21 44 -3 0 7 -9 23 -20 35 -25 26 -85 30 -118 6z"/>
<path d="M7409 371 c-25 -26 -29 -37 -29 -86 0 -47 4 -60 25 -79 30 -28 67
-37 105 -26 18 5 32 4 39 -3 18 -18 38 8 21 28 -10 12 -10 18 0 30 8 10 11 33
8 67 -4 42 -11 56 -34 75 -42 34 -97 31 -135 -6z m109 -23 c15 -19 23 -71 14
-86 -5 -7 -15 -12 -23 -10 -8 2 -14 -5 -14 -17 0 -28 -29 -30 -54 -4 -42 45
-17 129 38 129 16 0 33 -6 39 -12z"/>
<path d="M7617 394 c-4 -4 -7 -54 -7 -111 l0 -103 75 0 c68 0 75 2 75 20 0 17
-7 20 -50 20 l-49 0 -3 87 c-2 70 -6 88 -18 91 -9 1 -19 0 -23 -4z"/>
<path d="M7880 290 l0 -110 59 0 c81 0 112 25 118 96 8 89 -32 124 -138 124
l-39 0 0 -110z m111 60 c14 -8 19 -21 19 -51 0 -59 -14 -79 -55 -79 l-35 0 0
70 c0 68 1 70 26 70 14 0 34 -5 45 -10z"/>
<path d="M8156 392 c-6 -9 -76 -202 -76 -208 0 -2 11 -4 24 -4 15 0 26 7 29
20 8 29 86 29 94 0 3 -13 14 -20 29 -20 13 0 24 3 23 8 0 4 -17 52 -37 107
-30 80 -42 101 -59 103 -12 2 -24 -1 -27 -6z m38 -84 c10 -39 7 -48 -18 -48
-23 0 -24 2 -13 35 12 40 22 44 31 13z"/>
<path d="M8270 380 c0 -16 7 -20 30 -20 l30 0 0 -90 c0 -89 0 -90 25 -90 25 0
25 1 25 90 l0 90 30 0 c23 0 30 4 30 20 0 18 -7 20 -85 20 -78 0 -85 -2 -85
-20z"/>
<path d="M8510 397 c0 -2 -17 -51 -39 -110 l-39 -107 23 0 c15 0 26 8 30 20 9
29 90 29 98 0 3 -13 14 -20 30 -20 l25 0 -24 68 c-55 154 -54 152 -80 152 -13
0 -24 -1 -24 -3z m49 -129 c1 -5 -10 -8 -24 -8 -28 0 -30 4 -13 51 l11 33 13
-34 c7 -19 13 -38 13 -42z"/>
<path d="M8668 394 c-5 -4 -8 -54 -8 -111 l0 -103 70 0 c57 0 74 4 90 20 24
24 26 63 5 84 -9 9 -11 17 -5 21 15 9 12 61 -5 75 -17 14 -136 26 -147 14z
m117 -59 c0 -16 -8 -21 -37 -23 -35 -3 -38 -1 -38 23 0 24 3 26 38 23 29 -2
37 -7 37 -23z m6 -76 c14 -23 -3 -39 -42 -39 -37 0 -39 2 -39 31 0 31 1 31 37
26 20 -4 40 -12 44 -18z"/>
<path d="M8946 392 c-6 -9 -76 -202 -76 -208 0 -2 11 -4 24 -4 15 0 26 7 29
20 8 29 86 29 94 0 3 -13 14 -20 29 -20 13 0 24 3 23 8 0 4 -17 52 -37 107
-30 80 -42 101 -59 103 -12 2 -24 -1 -27 -6z m38 -84 c10 -39 7 -48 -18 -48
-23 0 -24 2 -13 35 12 40 22 44 31 13z"/>
<path d="M9112 377 c-43 -45 -21 -86 56 -107 45 -12 65 -36 41 -51 -24 -15
-58 -10 -71 11 -15 23 -48 27 -48 5 0 -22 37 -55 63 -56 72 -4 107 16 107 60
0 39 -11 50 -71 69 -62 20 -73 45 -21 50 22 2 34 -2 38 -12 3 -9 16 -16 29
-16 18 0 22 4 18 20 -14 51 -102 68 -141 27z"/>
<path d="M9300 290 l0 -110 80 0 c73 0 80 2 80 20 0 18 -7 20 -60 20 -57 0
-60 1 -60 24 0 23 4 25 52 28 41 2 54 7 56 21 3 14 -5 17 -52 17 -53 0 -56 1
-56 25 0 24 3 25 61 25 52 0 60 2 57 18 -3 14 -16 17 -81 20 l-77 3 0 -111z"/>
<path d="M4230 265 c0 -12 19 -15 115 -15 96 0 115 3 115 15 0 12 -19 15 -115
15 -96 0 -115 -3 -115 -15z"/>
<path d="M9600 265 c0 -12 19 -15 110 -15 91 0 110 3 110 15 0 12 -19 15 -110
15 -91 0 -110 -3 -110 -15z"/>
</g>
</svg>
